<?xml version="1.0" encoding="UTF-8" standalone="no"?>
<svg
   xmlns="http://www.w3.org/2000/svg"
   width="360"
   height="180"
   viewBox="0 0 360 180"
   version="1.1"
>
    <g>
        <rect x="170" y="0"   width="20"  height="10" fill="#d0f2fa" />
        <rect x="160" y="10"  width="40"  height="10" fill="#d0f2fa" />
        <rect x="150" y="20"  width="60"  height="10" fill="#a3e1f6" />
        <rect x="140" y="30"  width="80"  height="10" fill="#a3e1f6" />
        <rect x="130" y="40"  width="100" height="10" fill="#70c0e4" />
        <rect x="120" y="50"  width="120" height="10" fill="#70c0e4" />
        <rect x="110" y="60"  width="140" height="10" fill="#4b98ca" />
        <rect x="100" y="70"  width="160" height="10" fill="#4b98ca" />
        <rect x="90"  y="80"  width="180" height="10" fill="#1b5ca8" />
        <rect x="80"  y="90"  width="200" height="10" fill="#1b5ca8" />
        <rect x="70"  y="100" width="220" height="10" fill="#135490" />
        <rect x="60"  y="110" width="240" height="10" fill="#135490" />
        <rect x="50"  y="120" width="260" height="10" fill="#0d3f78" />
        <rect x="40"  y="130" width="280" height="10" fill="#0d3f78" />
        <rect x="30"  y="140" width="300" height="10" fill="#082c61" />
        <rect x="20"  y="150" width="320" height="10" fill="#082c61" />
        <rect x="10"  y="160" width="340" height="10" fill="#051f50" />
        <rect x="0"   y="170" width="360" height="10" fill="#051f50" />
  </g>
</svg>
